<?xml version="1.0" encoding="UTF-8"?>
<svg xmlns="http://www.w3.org/2000/svg" xmlns:xlink="http://www.w3.org/1999/xlink" width="58px" height="56px" viewBox="0 0 58 56" version="1.1">
    <!-- Generator: Sketch 52.6 (67491) - http://www.bohemiancoding.com/sketch -->
    <title>020 - Add Basket</title>
    <desc>Created with Sketch.</desc>
    <g id="Page-1" stroke="none" stroke-width="1" fill="none" fill-rule="evenodd">
        <g id="020---Add-Basket" transform="translate(0.000000, -1.000000)">
            <path d="M14.11,20 L24.67,4.114 C25.2830361,3.19168447 25.0323155,1.94703609 24.11,1.33400002 C23.1876845,0.720963959 21.9430361,0.971684487 21.33,1.894 L9.3,20 L11,22 L14.11,20 Z" id="Path" fill="#F0C419"/>
            <path d="M48.7,20 L36.67,1.894 C36.0569639,0.971684468 34.8123155,0.720963928 33.89,1.334 C32.9676845,1.94703607 32.7169639,3.19168447 33.33,4.114 L43.89,20 L47,22 L48.7,20 Z" id="Path" fill="#F0C419"/>
            <path d="M55,26 L52.95,34 L52.44,36 L50.39,44 L49.88,46 L48.34,52 C47.8874064,53.7670541 46.2940933,55.0021805 44.47,55 L13.53,55 C11.7059067,55.0021805 10.1125936,53.7670541 9.66,52 L8.12,46 L7.61,44 L5.56,36 L5.05,34 L3,26 L29,23 L55,26 Z" id="Path" fill="#BDC3C7"/>
            <path d="M52.44,36 L52.95,34 L39.37,34 L41.02,26 L38.97,26 L37.32,34 L20.68,34 L19.02,26 L16.98,26 L18.63,34 L5.05,34 L5.56,36 L19.05,36 L20.7,44 L7.61,44 L8.12,46 L21.12,46 L22.98,55 L25.02,55 L23.16,46 L34.84,46 L32.98,55 L35.02,55 L36.88,46 L49.88,46 L50.39,44 L37.3,44 L38.95,36 L52.44,36 Z M35.25,44 L22.75,44 L21.09,36 L36.91,36 L35.25,44 Z" id="Shape" fill="#95A5A5" fill-rule="nonzero"/>
            <rect id="Rectangle" fill="#3B97D3" x="0" y="20.004" width="58" height="6" rx="2"/>
            <circle id="Oval" fill="#24AE5F" cx="49" cy="48" r="9"/>
            <path d="M53,47 L50,47 L50,44 C50,43.4477153 49.5522847,43 49,43 C48.4477153,43 48,43.4477153 48,44 L48,47 L45,47 C44.4477153,47 44,47.4477153 44,48 C44,48.5522847 44.4477153,49 45,49 L48,49 L48,52 C48,52.5522847 48.4477153,53 49,53 C49.5522847,53 50,52.5522847 50,52 L50,49 L53,49 C53.5522847,49 54,48.5522847 54,48 C54,47.4477153 53.5522847,47 53,47 Z" id="Path" fill="#FFFFFF"/>
        </g>
    </g>
</svg>
